<svg id="图层_1" data-name="图层 1" xmlns="http://www.w3.org/2000/svg" viewBox="0 0 120 120">
    <defs>
        <style>
            .cls-1{
                fill:#fff0;
            }
            .cls-2{
                fill:#409eff;
            }
            .cls-3,.cls-4{
                fill:none;
                stroke:#409eff;
                stroke-linecap:round;
                stroke-miterlimit:10;
            }
            .cls-3{
                stroke-width:4px;
            }
            .cls-4{
                stroke-width:2px;
            }
        </style>
    </defs>
    <rect class="cls-1" width="120" height="120"/>
    <rect class="cls-2" x="19.14" y="55.34" width="17.3" height="1.62" rx="0.81"
          transform="translate(44.27 116.59) rotate(-168.92)"/>
    <rect class="cls-2" x="8.21" y="72.1" width="46.18" height="3.24" rx="1.62"
          transform="translate(-42.43 105.02) rotate(-90)"/>
    <path class="cls-3" d="M31,45.87c0-4.47,4.43-22.68,8.91-22.68,0,0,3.24.81,5.67,17"/>
    <path class="cls-3" d="M83.32,40.2c0-4.47-3.63-17-8.1-17,0,0-3.24.81-5.67,17"/>
    <path class="cls-3" d="M45.59,40.17a45.51,45.51,0,0,1,24,0"/>
    <rect class="cls-2" x="29.67" y="93.55" width="32.12" height="3.24" rx="1.62"/>
    <rect class="cls-2" x="67.12" y="52.45" width="32.4" height="4.02" rx="1.62"
          transform="translate(28.85 137.78) rotate(-90)"/>
    <rect class="cls-2" x="65.96" y="77.25" width="22.06" height="3.57" rx="1.62"
          transform="translate(-2.05 156.03) rotate(-90)"/>
    <path class="cls-3" d="M84,68.47a12.59,12.59,0,0,1,3.84-.6,13.28,13.28,0,0,1,0,26.54,12.8,12.8,0,0,1-10.64-5.76"/>
    <circle class="cls-2" cx="44.15" cy="51.24" r="3.23"/>
    <circle class="cls-2" cx="69.89" cy="51.24" r="3.23"/>
    <path class="cls-2"
          d="M57.3,61.15l-2.2-1.7a.85.85,0,0,1,.51-1.52H60a.85.85,0,0,1,.51,1.52l-2.2,1.7A.87.87,0,0,1,57.3,61.15Z"/>
    <path class="cls-4" d="M57.82,60.1c0,1.64-1.33,3.75-3,3.75a3,3,0,0,1-3-3"/>
    <path class="cls-4" d="M57.65,60c0,1.64,1.33,3.74,3,3.74a3,3,0,0,0,3-3"/>
    <rect class="cls-2" x="19.14" y="62.91" width="17.3" height="1.62" rx="0.81"
          transform="matrix(-0.99, 0.15, -0.15, -0.99, 64.68, 122.64)"/>
    <rect class="cls-2" x="78.43" y="55.55" width="17.3" height="1.62" rx="0.81"
          transform="matrix(0.98, -0.19, 0.19, 0.98, -9.21, 17.78)"/>
    <rect class="cls-2" x="78.43" y="63.13" width="17.3" height="1.62" rx="0.81"
          transform="matrix(0.99, 0.15, -0.15, 0.99, 10.4, -12.16)"/>
    <rect class="cls-2" x="30.35" y="83.75" width="8.22" height="1.62" rx="0.81"/>
    <rect class="cls-2" x="30.35" y="87.97" width="13.35" height="1.62" rx="0.81"/>
    <rect class="cls-2" x="30.35" y="79.52" width="12.9" height="1.62" rx="0.81"/>
</svg>