<?xml version="1.0" standalone="no"?><!DOCTYPE svg PUBLIC "-//W3C//DTD SVG 1.1//EN" "http://www.w3.org/Graphics/SVG/1.1/DTD/svg11.dtd"><svg class="icon" width="200px" height="200.00px" viewBox="0 0 1024 1024" version="1.1" xmlns="http://www.w3.org/2000/svg"><path fill="#FBFBFD" d="M702.933333 256H810.666667a42.666667 42.666667 0 0 1 42.666666 42.666667v512a42.666667 42.666667 0 0 1-42.666666 42.666666H213.333333a42.666667 42.666667 0 0 1-42.666666-42.666666V298.666667a42.666667 42.666667 0 0 1 42.666666-42.666667h107.733334c-0.704 3.456-1.066667 7.018667-1.066667 10.666667v42.666666a53.333333 53.333333 0 1 0 106.666667 0v-42.666666c0-3.648-0.362667-7.210667-1.066667-10.666667h172.8c-0.704 3.456-1.066667 7.018667-1.066667 10.666667v42.666666a53.333333 53.333333 0 1 0 106.666667 0v-42.666666c0-3.648-0.362667-7.210667-1.066667-10.666667zM373.333333 170.666667A32 32 0 0 1 405.333333 202.666667v106.666666a32 32 0 0 1-64 0v-106.666666A32 32 0 0 1 373.333333 170.666667z m277.333334 0A32 32 0 0 1 682.666667 202.666667v106.666666a32 32 0 0 1-64 0v-106.666666A32 32 0 0 1 650.666667 170.666667zM341.333333 469.333333a21.333333 21.333333 0 0 0 0 42.666667h341.333334a21.333333 21.333333 0 0 0 0-42.666667H341.333333z m0 170.666667a21.333333 21.333333 0 0 0 0 42.666667h341.333334a21.333333 21.333333 0 0 0 0-42.666667H341.333333z"  /></svg>