<svg xmlns="http://www.w3.org/2000/svg" xmlns:xlink="http://www.w3.org/1999/xlink" fill="none" version="1.1" width="24" height="24" viewBox="0 0 24 24"><clipPath id="master_svg0_1_6"><rect x="0" y="0" width="24" height="24" rx="0"/></clipPath><g clip-path="url(#master_svg0_1_6)" style="mix-blend-mode:passthrough"><g><g style="mix-blend-mode:passthrough"><path d="M4.520812,2.122288165534973C4.8418849999999996,1.946997365534973,5.23305,1.9610085655349732,5.54076,2.158821165534973C5.54076,2.158821165534973,19.5408,11.158819165534974,19.5408,11.158819165534974C19.826999999999998,11.342819165534973,20,11.659739165534972,20,11.999999165534973C20,12.340299165534972,19.826999999999998,12.657199165534973,19.5408,12.841199165534974C19.5408,12.841199165534974,5.54076,21.841199165534974,5.54076,21.841199165534974C5.23305,22.038999165534975,4.8418849999999996,22.052999165534974,4.520812,21.877699165534974C4.199739,21.702399165534974,4,21.365799165534973,4,20.999999165534973C4,20.999999165534973,4,2.999999165534973,4,2.999999165534973C4,2.634193165534973,4.199739,2.297578165534973,4.520812,2.122288165534973C4.520812,2.122288165534973,4.520812,2.122288165534973,4.520812,2.122288165534973ZM6,4.831669165534973C6,4.831669165534973,6,19.16829916553497,6,19.16829916553497C6,19.16829916553497,17.1507,11.999999165534973,17.1507,11.999999165534973C17.1507,11.999999165534973,6,4.831669165534973,6,4.831669165534973C6,4.831669165534973,6,4.831669165534973,6,4.831669165534973Z" fill-rule="evenodd" fill="#409FEE" fill-opacity="1"/></g></g></g></svg>