<svg xmlns="http://www.w3.org/2000/svg" xmlns:xlink="http://www.w3.org/1999/xlink" fill="none" version="1.1" width="24" height="24" viewBox="0 0 24 24"><clipPath id="master_svg0_50_9115"><rect x="0" y="0" width="24" height="24" rx="0"/></clipPath><g clip-path="url(#master_svg0_50_9115)" style="mix-blend-mode:passthrough"><g><g style="mix-blend-mode:passthrough"><path d="M12,3C7.02944,3,3,7.02944,3,12C3,16.970599999999997,7.02944,21,12,21C16.970599999999997,21,21,16.970599999999997,21,12C21,7.02944,16.970599999999997,3,12,3C12,3,12,3,12,3ZM1,12C1,5.92487,5.92487,1,12,1C18.0751,1,23,5.92487,23,12C23,18.0751,18.0751,23,12,23C5.92487,23,1,18.0751,1,12C1,12,1,12,1,12ZM9.52814,7.11833C9.8533,6.94431,10.24784,6.96338,10.5547,7.16795C10.5547,7.16795,16.5547,11.1679,16.5547,11.1679C16.832900000000002,11.3534,17,11.6656,17,12C17,12.3344,16.832900000000002,12.6466,16.5547,12.8321C16.5547,12.8321,10.5547,16.8321,10.5547,16.8321C10.24784,17.0366,9.8533,17.0557,9.52814,16.881700000000002C9.20298,16.707700000000003,9,16.3688,9,16C9,16,9,8,9,8C9,7.6312,9.20298,7.29234,9.52814,7.11833C9.52814,7.11833,9.52814,7.11833,9.52814,7.11833ZM11,9.86852C11,9.86852,11,14.1315,11,14.1315C11,14.1315,14.1972,12,14.1972,12C14.1972,12,11,9.86852,11,9.86852C11,9.86852,11,9.86852,11,9.86852Z" fill-rule="evenodd" fill="#FFFFFF" fill-opacity="1"/></g></g></g></svg>