<svg xmlns="http://www.w3.org/2000/svg" version="1.1"
     viewBox="0 0 1422 800" id="uuunion">
    <defs>
        <filter id="uuunion-blur" x="-100%" y="-100%" width="400%" height="400%" color-interpolation-filters="sRGB">
            <feGaussianBlur in="SourceGraphic" stdDeviation="0 0" result="blur"></feGaussianBlur>
            <feDropShadow stdDeviation="49.23076923076923" in="blur" dx="40" dy="40" flood-color="#64BAFA"
                          flood-opacity="1" x="0%" y="0%" width="100%" height="100%"></feDropShadow>
        </filter>
        <filter id="uuunion-blur2" x="-100%" y="-100%" width="400%" height="400%" color-interpolation-filters="sRGB">
            <feGaussianBlur in="SourceGraphic" stdDeviation="0 0" result="blur"></feGaussianBlur>
            <feDropShadow stdDeviation="49.23076923076923" in="blur" dx="-40" dy="-40" flood-color="#64BAFA"
                          flood-opacity="1" x="0%" y="0%" width="100%" height="100%"></feDropShadow>
        </filter>
        <linearGradient gradientTransform="rotate(43, 0.5, 0.5)" x1="50%" y1="0%" x2="50%" y2="100%" id="uuunion-grad">
            <stop stop-color="#D1E7F9" offset="10%"></stop>
            <stop stop-color="#64BAFA" offset="90%"></stop>
        </linearGradient>
        <linearGradient gradientTransform="rotate(35, 0.5, 0.5)" x1="50%" y1="0%" x2="50%" y2="100%" id="uuunion-grad2">
            <stop stop-color="#D1E7F9" offset="25%"></stop>
            <stop stop-color="#64BAFA" offset="100%"></stop>
        </linearGradient>
        <linearGradient gradientTransform="rotate(110, 0.5, 0.5)" x1="50%" y1="0%" x2="50%" y2="100%"
                        id="uuunion-grad3">
            <stop stop-color="#D1E7F9" offset="0%"></stop>
            <stop stop-color="#64BAFA" offset="75%"></stop>
        </linearGradient>
    </defs>
    <path d="M-142.62 -86.53Q-129.3 -89.26 -115.99 -90.66 -102.67 -90.53 -89.36 -88.89 -76.05 -85.98 -62.73 -82.21 -49.42 -78.12 -36.1 -74.3 -22.79 -71.3 -9.47 -69.54 3.83 -69.28 17.15 -70.56 30.46 -73.19 43.77 -76.79 57.09 -80.86 70.4 -84.8 83.72 -88.05 97.03 -90.15 110.35 -90.79 123.66 -89.88 136.98 -87.56 150.29 -84.15 163.61 -80.15 176.92 -76.13 190.23 -72.65 203.55 -70.24 216.86 -69.22 230.18 -69.74 243.49 -71.73 256.81 -74.91 270.12 -78.82 283.44 -82.9 296.75 -86.55 310.06 -89.27 323.38 -90.66 336.69 -90.52 350.01 -88.87 363.32 -85.95 376.64 -82.18 389.95 -78.09 403.27 -74.27 416.58 -71.28 429.9 -69.53 443.21 -69.29 456.52 -70.58 469.84 -73.21 483.15 -76.82 496.47 -80.89 509.78 -84.83 523.1 -88.07 536.41 -90.16 549.73 -90.79 563.04 -89.87 576.36 -87.54 589.67 -84.13 602.98 -80.12 616.3 -76.1 629.61 -72.63 642.93 -70.22 656.24 -69.21 669.56 -69.75 682.87 -71.76 696.19 -74.94 709.5 -78.85 722.81 -82.93 736.13 -86.58 749.44 -89.29 762.76 -90.67 776.07 -90.52 789.39 -88.86 802.7 -85.93 816.02 -82.15 829.33 -78.06 842.65 -74.25 855.96 -71.26 869.27 -69.52 882.59 -69.29 895.9 -70.59 909.22 -73.24 922.53 -76.86 935.85 -80.92 949.16 -84.86 962.48 -88.09 975.79 -90.17 989.11 -90.79 1002.42 -89.86 1015.74 -87.52 1029.05 -84.09 1042.36 -80.09 1055.68 -76.07 1068.99 -72.61 1082.31 -70.21 1095.62 -69.21 1108.94 -69.76 1122.25 -71.78 1135.57 -74.97 1148.88 -78.89 1162.2 -82.96 1175.51 -86.61 1188.82 -89.31 1202.14 -90.67 1215.45 -90.51 1228.77 -88.84 1242.08 -85.9 1255.4 -82.11 1268.71 -78.02 1282.03 -74.22 1295.34 -71.24 1308.66 -69.52 1321.97 -69.3 1335.29 -70.61 1348.6 -73.27 1361.91 -76.89 1375.23 -80.96 1388.54 -84.89 1401.86 -88.11 1415.17 -90.18 1428.49 -90.79 1441.8 -89.84 1455.12 -87.49 1468.43 -84.06 1481.75 -80.05 1495.06 -76.03 1508.37 -72.58 1521.69 -70.19 1535 -69.21 1548.32 -69.77 1561.63 -71.8 1561.7 -56.91 1562.01 -42.03 1562.51 -27.14 1563.18 -12.25 1563.93 2.62 1564.72 17.51 1565.45 32.39 1566.07 47.28 1566.51 62.17 1566.74 77.05 1566.73 91.94 1566.48 106.83 1566.03 121.71 1565.4 136.6 1564.66 151.48 1563.88 166.37 1563.13 181.26 1562.47 196.14 1561.98 211.03 1561.69 225.91 1561.64 240.8 1561.82 255.69 1562.23 270.57 1562.81 285.46 1563.53 300.35 1564.31 315.23 1565.07 330.12 1565.76 345 1566.3 359.89 1566.64 374.78 1566.76 389.66 1566.64 404.55 1566.29 419.43 1565.75 434.32 1565.06 449.21 1564.29 464.09 1563.51 478.98 1562.8 493.87 1562.21 508.75 1561.81 523.64 1561.64 538.52 1561.7 553.41 1561.99 568.3 1562.48 583.18 1563.14 598.07 1563.89 612.95 1564.68 627.84 1565.41 642.73 1566.04 657.61 1566.49 672.5 1566.73 687.39 1566.73 702.27 1566.5 717.16 1566.05 732.04 1565.43 746.93 1564.7 761.82 1563.92 776.7 1563.16 791.59 1562.5 806.47 1562 821.36 1561.7 836.25 1561.63 851.13 1561.81 866.02 1562.2 880.91 1548.88 881.13 1535.56 881.19 1522.25 881.08 1508.93 880.82 1495.61 880.44 1482.29 879.99 1468.97 879.54 1455.65 879.16 1442.34 878.9 1429.02 878.8 1415.7 878.86 1402.38 879.09 1389.06 879.45 1375.74 879.89 1362.43 880.34 1349.11 880.74 1335.79 881.04 1322.47 881.18 1309.15 881.16 1295.83 880.97 1282.52 880.64 1269.2 880.21 1255.88 879.76 1242.56 879.34 1229.24 879.01 1215.92 878.83 1202.61 878.81 1189.29 878.96 1175.97 879.26 1162.65 879.67 1149.33 880.12 1136.02 880.55 1122.7 880.91 1109.38 881.13 1096.06 881.19 1082.74 881.08 1069.42 880.82 1056.11 880.43 1042.79 879.98 1029.47 879.54 1016.15 879.16 1002.83 878.9 989.51 878.8 976.2 878.86 962.88 879.1 949.56 879.45 936.24 879.89 922.92 880.34 909.6 880.75 896.29 881.04 882.97 881.18 869.65 881.16 856.33 880.97 843.01 880.63 829.7 880.21 816.38 879.76 803.06 879.34 789.74 879.01 776.42 878.83 763.1 878.81 749.79 878.96 736.47 879.26 723.15 879.67 709.83 880.12 696.51 880.56 683.2 880.91 669.88 881.13 656.56 881.19 643.24 881.08 629.92 880.81 616.6 880.43 603.29 879.98 589.97 879.54 576.65 879.16 563.33 878.9 550.01 878.8 536.69 878.87 523.38 879.1 510.06 879.46 496.74 879.9 483.42 880.35 470.1 880.75 456.79 881.04 443.47 881.18 430.15 881.16 416.83 880.96 403.51 880.63 390.19 880.21 376.88 879.75 363.56 879.33 350.24 879.01 336.92 878.83 323.6 878.81 310.29 878.96 296.97 879.27 283.65 879.67 270.33 880.13 257.01 880.56 243.69 880.91 230.38 881.13 217.06 881.19 203.74 881.08 190.42 880.81 177.1 880.42 163.79 879.98 150.47 879.53 137.15 879.15 123.83 878.9 110.51 878.8 97.19 878.87 83.88 879.1 70.56 879.46 57.24 879.9 43.92 880.35 30.6 880.75 17.29 881.04 3.97 881.19 -9.34 881.16 -22.66 880.96 -35.98 880.63 -49.29 880.2 -62.61 879.75 -75.93 879.33 -89.25 879.01 -102.57 878.82 -115.89 878.81 -129.2 878.97 -142.52 879.27 -142.59 864.18 -142.62 849.09 -142.61 834 -142.56 818.91 -142.47 803.82 -142.36 788.72 -142.23 773.63 -142.1 758.54 -141.98 743.45 -141.87 728.36 -141.8 713.27 -141.76 698.18 -141.76 683.09 -141.8 668 -141.87 652.91 -141.98 637.82 -142.1 622.73 -142.24 607.64 -142.36 592.54 -142.47 577.45 -142.56 562.36 -142.61 547.27 -142.62 532.18 -142.59 517.09 -142.52 502 -142.42 486.91 -142.3 471.82 -142.17 456.73 -142.04 441.64 -141.92 426.55 -141.83 411.46 -141.77 396.36 -141.75 381.27 -141.77 366.18 -141.83 351.09 -141.92 336 -142.04 320.91 -142.17 305.82 -142.3 290.73 -142.42 275.64 -142.52 260.55 -142.59 245.46 -142.62 230.37 -142.61 215.28 -142.56 200.18 -142.48 185.09 -142.37 170 -142.24 154.91 -142.11 139.82 -141.98 124.73 -141.88 109.64 -141.8 94.55 -141.76 79.46 -141.76 64.37 -141.79 49.28 -141.87 34.19 -141.97 19.1 -142.1 4.01 -142.23 -11.08 -142.36 -26.17 -142.47 -41.26 -142.55 -56.35 -142.61 -71.44 -142.62 -86.53"
          fill="url(#uuunion-grad)"></path>
    <path d="M-142.63 -86.53Q-142.62 -71.44 -142.56 -56.35 -142.48 -41.25 -142.37 -26.16 -142.24 -11.07 -142.11 4.01 -141.98 19.1 -141.88 34.19 -141.8 49.28 -141.77 64.37 -141.77 79.46 -141.81 94.55 -141.89 109.64 -141.99 124.73 -142.12 139.82 -142.25 154.91 -142.38 170.01 -142.49 185.1 -142.57 200.19 -142.62 215.28 -142.63 230.37 -142.6 245.46 -142.53 260.55 -142.43 275.64 -142.31 290.73 -142.18 305.82 -142.05 320.91 -141.93 336 -141.84 351.09 -141.78 366.18 -137.32 388.28 -123.99 394.5 -115.09 394.07 -106.19 394.02 -97.29 394.36 -88.39 395.05 -79.5 396.06 -70.6 397.33 -61.7 398.76 -52.8 400.28 -43.9 401.77 -35.01 403.16 -26.11 404.34 -17.21 405.24 -0.39 405.94 2.57 405.99 13.69 402.48 24.8 398.42 35.92 393.87 47.03 388.99 58.14 383.93 69.24 378.9 80.35 374.09 91.45 369.66 102.54 365.76 113.63 362.46 124.72 359.78 135.81 357.7 146.89 356.1 157.97 354.85 169.05 353.76 180.12 352.62 191.19 351.24 202.25 349.44 213.31 347.08 224.37 344.08 235.42 340.42 246.47 336.15 257.52 331.38 268.56 326.27 279.6 321.01 290.64 315.82 301.67 310.9 312.7 306.44 323.74 302.57 334.76 299.38 345.79 296.87 356.82 294.99 367.84 293.63 378.86 292.61 389.89 291.72 400.91 290.73 411.93 289.45 422.96 287.67 433.98 285.26 445.01 282.14 456.04 278.31 467.07 273.82 478.1 268.82 489.13 263.48 500.17 258.02 511.21 252.68 522.25 247.67 533.3 243.2 544.36 239.39 555.41 236.33 566.47 234.01 577.54 232.36 588.61 231.23 599.69 230.43 610.77 229.74 621.86 228.9 632.95 227.69 644.05 225.91 655.16 223.43 666.27 220.17 677.39 216.14 688.51 211.43 699.64 206.18 710.78 200.62 721.92 194.97 733.07 189.49 744.22 184.42 755.38 179.95 766.54 176.23 777.71 173.32 788.89 171.2 800.07 169.78 811.25 168.9 822.44 168.33 833.63 167.82 844.82 167.11 856.02 165.96 867.22 164.16 878.42 161.58 889.63 158.16 900.83 153.92 912.04 148.96 923.24 143.47 934.45 137.68 945.65 131.85 956.86 126.25 968.06 121.13 979.26 116.7 990.46 113.09 1001.65 110.35 1012.84 108.46 1024.03 107.28 1035.21 106.65 1046.39 106.3 1057.56 105.97 1068.72 105.37 1079.88 104.25 1091.04 102.41 1102.18 99.71 1113.32 96.11 1124.45 91.63 1135.57 86.43 1146.69 80.69 1157.8 74.67 1168.89 68.67 1179.98 62.97 1191.06 57.83 1202.14 53.46 1213.2 49.97 1224.26 47.43 1235.3 45.77 1246.34 44.86 1257.37 44.47 1268.39 44.34 1279.4 44.18 1290.41 43.67 1301.41 42.57 1312.4 40.65 1323.38 37.81 1334.36 34 1345.33 29.28 1356.29 23.82 1367.25 17.83 1378.21 11.6 1389.16 5.44 1400.11 -0.33 1411.05 -5.48 1422 -9.77 1421.16 -27.44 1420.43 -45.11 1419.9 -62.78 1419.63 -80.46 1419.66 -98.13 1419.99 -115.8 1420.57 -133.47 1421.32 -151.14 1409.02 -149.63 1396.71 -146.94 1384.4 -143.4 1372.09 -139.44 1359.78 -135.55 1347.48 -132.21 1335.17 -129.82 1322.86 -128.67 1310.55 -128.91 1298.24 -130.51 1285.93 -133.27 1273.63 -136.86 1261.32 -140.83 1249.01 -144.69 1236.7 -147.98 1224.39 -150.3 1212.09 -151.35 1199.78 -151.01 1187.47 -149.32 1175.16 -146.49 1162.85 -142.86 1150.54 -138.89 1138.24 -135.04 1125.93 -131.81 1113.62 -129.58 1101.31 -128.62 1089 -129.06 1076.7 -130.83 1064.39 -133.73 1052.08 -137.4 1039.77 -141.38 1027.46 -145.2 1015.15 -148.37 1002.85 -150.52 990.54 -151.39 978.23 -150.85 965.92 -148.99 953.61 -146.02 941.31 -142.32 929 -138.33 916.69 -134.55 904.38 -131.43 892.07 -129.36 879.76 -128.6 867.46 -129.23 855.15 -131.18 842.84 -134.21 830.53 -137.94 818.22 -141.93 805.92 -145.69 793.61 -148.74 781.3 -150.72 768.99 -151.39 756.68 -150.67 744.37 -148.63 732.07 -145.54 719.76 -141.77 707.45 -137.78 695.14 -134.06 682.83 -131.07 670.53 -129.17 658.22 -128.6 645.91 -129.42 633.6 -131.54 621.29 -134.69 608.98 -138.5 596.68 -142.48 584.37 -146.16 572.06 -149.09 559.75 -150.9 547.44 -151.38 535.14 -150.46 522.83 -148.26 510.52 -145.05 498.21 -141.22 485.9 -137.24 473.59 -133.59 461.29 -130.74 448.98 -129.01 436.67 -128.63 424.36 -129.64 412.05 -131.92 399.75 -135.19 387.44 -139.05 375.13 -143.02 362.82 -146.62 350.51 -149.41 338.2 -151.05 325.9 -151.33 313.59 -150.23 301.28 -147.87 288.97 -144.54 276.66 -140.66 264.36 -136.7 252.05 -133.14 239.74 -130.42 227.43 -128.88 215.12 -128.69 202.81 -129.89 190.51 -132.33 178.2 -135.7 165.89 -139.61 153.58 -143.56 141.27 -147.07 128.97 -149.72 116.66 -151.17 104.35 -151.26 92.04 -149.97 79.73 -147.45 67.42 -144.03 55.12 -140.1 42.81 -136.17 30.5 -132.7 18.19 -130.13 5.88 -128.77 -6.41 -128.78 -18.72 -130.16 -31.03 -132.75 -43.34 -136.23 -55.65 -140.17 -67.96 -144.08 -80.26 -147.5 -92.57 -150 -104.88 -151.27 -117.19 -151.16 -129.5 -149.68 -141.8 -147.02 -154.11 -143.5 -151.28 -129.34 -148.43 -115.13 -145.55 -100.86 -142.63 -86.53"
          fill="url(#uuunion-grad2)" filter="url(#uuunion-blur)"></path>
    <path d="M1422.58 313.35Q1431.47 313.2 1440.36 313.49 1449.25 314.2 1458.14 315.27 1467.03 316.66 1475.92 318.25 1484.81 319.96 1493.7 321.67 1502.59 323.27 1511.48 324.66 1520.37 325.75 1529.26 326.48 1538.15 326.79 1547.04 326.66 1555.93 326.1 1564.82 325.16 1565.65 342.52 1566.3 359.89 1566.68 377.26 1566.75 394.62 1566.49 411.99 1565.95 429.36 1565.18 446.73 1564.29 464.09 1563.39 481.46 1562.59 498.83 1561.99 516.19 1561.67 533.56 1561.67 550.93 1561.99 568.3 1562.58 585.66 1563.38 603.03 1564.29 620.4 1565.18 637.77 1565.94 655.13 1566.49 672.5 1566.75 689.87 1566.68 707.23 1566.3 724.6 1565.66 741.97 1564.83 759.34 1563.92 776.7 1563.04 794.07 1562.31 811.44 1561.82 828.8 1561.63 846.17 1561.76 863.54 1562.2 880.91 1549.98 881.12 1537.77 881.19 1525.55 881.13 1513.34 880.92 1501.12 880.6 1488.9 880.21 1476.69 879.8 1464.47 879.4 1452.25 879.08 1440.04 878.87 1427.82 878.8 1415.61 878.86 1403.39 879.07 1391.17 879.39 1378.96 879.78 1366.74 880.2 1354.52 880.59 1342.31 880.91 1330.09 881.12 1317.88 881.19 1305.66 881.12 1293.44 880.92 1281.23 880.6 1269.01 880.21 1256.79 879.79 1244.58 879.4 1232.36 879.08 1220.15 878.87 1207.93 878.8 1195.71 878.87 1183.5 879.07 1171.28 879.39 1159.06 879.79 1146.85 880.2 1134.63 880.59 1122.42 880.91 1110.2 881.12 1097.98 881.19 1085.77 881.12 1073.55 880.91 1061.33 880.59 1049.12 880.2 1036.9 879.78 1024.69 879.39 1012.47 879.07 1000.25 878.87 988.04 878.8 975.82 878.87 963.6 879.08 951.39 879.4 939.17 879.79 926.96 880.21 914.74 880.6 902.52 880.92 890.31 881.13 878.09 881.19 865.87 881.12 853.66 880.91 841.44 880.59 829.23 880.19 817.01 879.78 804.79 879.39 792.58 879.07 780.36 878.86 768.14 878.8 755.93 878.87 743.71 879.08 731.5 879.41 719.28 879.8 707.06 880.22 694.85 880.61 682.63 880.92 670.41 881.13 658.2 881.19 645.98 881.12 633.77 880.9 621.55 880.58 609.33 880.19 597.12 879.77 584.9 879.38 572.68 879.07 560.47 878.86 548.25 878.8 536.04 878.87 523.82 879.09 511.6 879.41 499.39 879.81 487.17 880.22 474.95 880.61 462.74 880.93 450.52 881.13 438.31 881.19 426.09 881.12 413.87 880.9 401.66 880.58 389.44 880.18 377.22 879.76 365.01 879.38 352.79 879.06 340.58 878.86 328.36 878.8 316.14 878.88 303.93 879.09 291.71 879.42 279.49 879.81 267.28 880.23 255.06 880.62 242.85 880.93 230.63 881.13 218.41 881.19 206.2 881.11 193.98 880.9 181.76 880.57 169.55 880.17 157.33 879.76 145.12 879.37 132.9 879.06 120.68 878.86 108.47 878.8 96.25 878.88 84.03 879.1 71.82 879.42 59.6 879.82 47.39 880.24 35.17 880.62 22.95 880.94 4.59 876.21 -1.58 861.39 -1.6 851.49 -1.6 841.59 -1.57 831.69 -1.52 821.79 -1.15 806.94 -0.35 802 12.2 795.68 24.77 789.1 37.34 782.29 49.92 775.31 62.51 768.25 75.1 761.21 87.69 754.29 100.28 747.6 112.87 741.19 125.46 735.11 138.05 729.35 150.63 723.86 163.2 718.55 175.76 713.31 188.31 708.01 200.85 702.52 213.37 696.74 225.88 690.59 238.38 684.04 250.86 677.12 263.32 669.89 275.77 662.48 288.21 655.03 300.63 647.69 313.04 640.61 325.43 633.9 337.82 627.64 350.19 621.85 362.56 616.47 374.92 611.42 387.28 606.54 399.64 601.67 412.01 596.63 424.37 591.26 436.75 585.42 449.13 579.07 461.52 572.18 473.93 564.84 486.35 557.16 498.79 549.33 511.25 541.53 523.73 533.98 536.23 526.84 548.75 520.25 561.29 514.25 573.85 508.83 586.44 503.91 599.04 499.32 611.66 494.86 624.3 490.3 636.95 485.42 649.62 480.04 662.29 474.04 674.97 467.37 687.66 460.06 700.35 452.24 713.04 444.1 725.72 435.87 738.39 427.8 751.05 420.13 763.7 413.05 776.33 406.69 788.94 401.06 801.53 396.11 811.27 396.25 821.01 396.6 830.75 397.02 840.49 397.38 850.23 397.57 859.97 397.48 869.71 397 879.44 396.09 889.18 394.71 898.91 392.87 908.65 390.61 918.38 388.02 928.11 385.19 937.84 382.24 947.56 379.31 957.29 376.51 967.02 373.98 976.74 371.81 986.47 370.07 996.19 368.8 1005.91 368.01 1015.63 367.66 1025.34 367.69 1035.06 367.99 1044.78 368.45 1054.49 368.95 1064.2 369.34 1073.91 369.49 1083.62 369.31 1093.33 368.7 1103.04 367.62 1112.74 366.06 1122.45 364.02 1132.15 361.58 1141.85 358.82 1151.55 355.85 1161.25 352.81 1170.94 349.84 1180.64 347.07 1190.33 344.61 1200.03 342.55 1209.72 340.97 1219.41 339.89 1229.09 339.3 1238.78 339.15 1248.47 339.35 1258.15 339.81 1267.83 340.37 1277.51 340.92 1287.19 341.31 1296.87 341.4 1306.55 341.11 1316.22 340.36 1325.9 339.09 1335.57 337.32 1345.24 335.08 1354.92 332.45 1364.59 329.53 1374.25 326.45 1383.92 323.34 1393.59 320.35 1403.25 317.62 1412.92 315.26 1422.58 313.35"
          fill="url(#uuunion-grad3)" filter="url(#uuunion-blur2)"></path>
</svg>
