<?xml version="1.0" standalone="no"?><!DOCTYPE svg PUBLIC "-//W3C//DTD SVG 1.1//EN" "http://www.w3.org/Graphics/SVG/1.1/DTD/svg11.dtd"><svg t="1661020270284" class="icon" viewBox="0 0 1024 1024" version="1.1" xmlns="http://www.w3.org/2000/svg" p-id="6923" xmlns:xlink="http://www.w3.org/1999/xlink" width="200" height="200"><defs><style type="text/css"></style></defs><path d="M191.9808 247.1616c0-21.952 17.9136-39.7952 40.0064-39.7952l200.0384 0 0-39.648c0-21.984 17.8752-39.7184 40.0064-39.7184l80.0128 0c22.0544 0 40.0128 17.8048 40.0128 39.7184l0 39.7888 199.9616 0c22.0544 0 40.0064 17.7728 40.0064 39.7248l0 39.7888L191.9808 287.0208 191.9808 247.1616zM792.0192 366.2784l0 79.4432 0 410.4896c0 21.9904-17.952 39.7952-40.0064 39.7952L271.9936 896.0064c-22.0928 0-40.0064-17.8048-40.0064-39.7952L231.9872 445.7216 231.9872 366.2784l0-39.648 560.032 0L792.0192 366.2784zM392.0128 445.792c0-21.9136-18.0224-39.7888-40.0832-39.7888-21.984 0-39.936 17.8752-39.936 39.7888l0 331.0528c0 21.9136 17.952 39.7184 40.0064 39.7184 22.1312 0 40.0064-17.8048 40.0064-39.7184L392.0064 445.792zM552.0448 445.792c0-21.9136-18.016-39.7888-40.0064-39.7888-22.1312 0-40.0064 17.8752-40.0064 39.7888l0 331.0528c0 21.9136 17.9456 39.7184 40.0064 39.7184 21.9904 0 40.0064-17.8048 40.0064-39.7184L552.0448 445.792zM712.0064 445.792c0-21.9136-17.952-39.7888-40.0128-39.7888-22.1312 0-40.0064 17.8752-40.0064 39.7888l0 331.0528c0 21.9136 17.952 39.7184 40.0064 39.7184 22.0608 0 40.0128-17.8048 40.0128-39.7184L712.0064 445.792z" p-id="6924" fill="#FBFBFD"></path></svg>