<?xml version="1.0" standalone="no"?><!DOCTYPE svg PUBLIC "-//W3C//DTD SVG 1.1//EN" "http://www.w3.org/Graphics/SVG/1.1/DTD/svg11.dtd"><svg class="icon" width="200px" height="200.00px" viewBox="0 0 1024 1024" version="1.1" xmlns="http://www.w3.org/2000/svg"><path fill="#FBFBFD" d="M774.5 896h-525c-67 0-121.5-52.2-121.5-116.3V704c0-26.5 21.5-48 48-48s48 21.5 48 48v75.7c0 11 11.7 20.3 25.5 20.3h525c13.8 0 25.5-9.3 25.5-20.3V704c0-26.5 21.5-48 48-48s48 21.5 48 48v75.7c0 64.1-54.5 116.3-121.5 116.3zM512 128c-26.5 0-48 21.5-48 48v432c0 26.5 21.5 48 48 48s48-21.5 48-48V176c0-26.5-21.5-48-48-48zM628.3 473.9c-12.3 0-24.6 4.7-33.9 14.1L512 570.3 429.7 488c-18.8-18.8-49.1-18.8-67.9 0s-18.8 49.1 0 67.9l116.3 116.3c18.8 18.8 49.1 18.8 67.9 0l116.3-116.3c18.8-18.8 18.8-49.1 0-67.9-9.5-9.4-21.8-14.1-34-14.1z" /></svg>